<svg width="63" height="63" viewBox="0 0 63 63" fill="none" xmlns="http://www.w3.org/2000/svg">
<path fill-rule="evenodd" clip-rule="evenodd" d="M41.4605 10.296C41.5036 10.2962 41.5463 10.2962 41.5895 10.296H41.7184C41.7744 10.2973 41.8292 10.2995 41.8832 10.3032C42.8006 10.3614 43.5908 10.7242 44.2533 11.3914C44.9858 12.1233 45.3534 13.0064 45.3562 14.0406V54.9952C45.3556 55.0532 45.3531 55.1105 45.3489 55.167C45.3094 56.1275 44.9445 56.9534 44.2533 57.6444C43.5671 58.3389 42.7461 58.7067 41.79 58.7469C41.7355 58.7513 41.6806 58.7537 41.6253 58.7543H21.3676C21.3169 58.7537 21.2669 58.7515 21.2172 58.7469C20.2554 58.7081 19.4296 58.3405 18.7395 57.6444C18.0091 56.9128 17.6441 56.0295 17.6439 54.9953V14.0406C17.6441 13.0064 18.0093 12.1233 18.7395 11.3914C19.4642 10.6612 20.3401 10.2962 21.3675 10.296V10.3032C32.0281 10.2995 38.64 10.2971 41.2027 10.296C41.2889 10.2966 41.3746 10.2966 41.4605 10.296ZM27.8051 50.2054V52.7541H35.2022V50.2054H27.8051ZM25.349 36.6444H30.2111L27.9985 44.3055C27.9543 44.4591 27.9638 44.6096 28.0271 44.7567C28.0901 44.9026 28.1927 45.0125 28.3351 45.0861C28.4765 45.161 28.6245 45.1826 28.7789 45.1505C28.9352 45.1174 29.064 45.0386 29.1657 44.9141L38.1809 33.6587C38.2879 33.5214 38.3332 33.3661 38.3172 33.1934C38.306 33.0183 38.2369 32.8704 38.1093 32.7496C37.9793 32.6274 37.8266 32.5652 37.6511 32.5633H32.7892L35.0017 24.9095C35.0457 24.7509 35.0362 24.596 34.9731 24.4441C34.9099 24.3004 34.8075 24.193 34.6651 24.122C34.521 24.0489 34.3706 24.03 34.2139 24.0645C34.0551 24.0976 33.924 24.1764 33.8202 24.3009L24.8193 35.5563C24.7077 35.6911 24.6575 35.8438 24.6687 36.0145C24.6846 36.1917 24.7585 36.3422 24.8909 36.4656C25.0207 36.585 25.1735 36.6447 25.349 36.6444ZM32.7745 16.3032V13.876H30.2326V16.3034H27.805V18.8521H30.2326V21.2796H32.7745V18.852H35.2021V16.3032H32.7745Z" fill="#0F4072"/>
<path d="M38.0949 4.15997H24.9765V8.18385H38.0949V4.15997Z" fill="#0F4072"/>
</svg>
