<svg width="78" height="78" viewBox="0 0 78 78" fill="none" xmlns="http://www.w3.org/2000/svg">
<rect width="78" height="78" fill="#1E1E1E"/>
<g id="Desktop - 1" clip-path="url(#clip0_0_1)">
<rect width="1024" height="1810" transform="translate(-52 -45)" fill="#FFFFFC"/>
<rect id="Rectangle 1" x="-52" y="-45" width="1024" height="651" fill="url(#paint0_linear_0_1)"/>
<g id="NavBar">
<rect id="NavBarBg" x="-20" y="-13" width="960" height="105" rx="5" fill="#0F4072"/>
<g id="electricity_icon 1" clip-path="url(#clip1_0_1)">
<g id="_x31_9_x2C__Settings_x2C__Electronics_x2C__Electricity_x2C__Setup_x2C__setting_x2C__Configuration_x2C__Gear_x2C__Power">
<g id="Group">
<path id="Vector" d="M71.3682 30.6807C70.1726 30.6807 69.1107 29.9241 68.7256 28.7982C68.3039 27.5655 67.8004 26.3486 67.2287 25.1818C66.7083 24.1192 66.9266 22.8375 67.7716 21.9925C70.0509 19.7133 70.0509 16.0046 67.7716 13.7254L64.2747 10.2285C61.9955 7.94945 58.2867 7.9493 56.0075 10.2285C55.1623 11.0737 53.8808 11.2919 52.8183 10.7713C51.6509 10.1996 50.4342 9.69592 49.2017 9.27454C48.0759 8.88957 47.3195 7.82758 47.3195 6.62924C47.3195 3.40595 44.6971 0.783508 41.4738 0.783508H36.5264C33.3031 0.783508 30.6807 3.40595 30.6807 6.63198C30.6807 7.82758 29.9241 8.88957 28.7985 9.27454C27.566 9.69607 26.3492 10.1996 25.1818 10.7715C24.1192 11.2922 22.8376 11.0736 21.9927 10.2287C19.7134 7.94945 16.0046 7.94961 13.7254 10.2287L10.2285 13.7254C7.9493 16.0048 7.9493 19.7133 10.2285 21.9925C11.0736 22.8375 11.2917 24.1194 10.7713 25.1817C10.1996 26.3488 9.69592 27.5655 9.27439 28.7983C8.88941 29.9243 7.82743 30.6807 6.62924 30.6807C3.40595 30.6807 0.783508 33.3031 0.783508 36.5264V41.4736C0.783508 44.6969 3.40595 47.3193 6.63198 47.3193C7.82758 47.3193 8.88941 48.0759 9.27454 49.2019C9.69623 50.4345 10.1997 51.6514 10.7715 52.8182C11.2919 53.8808 11.0736 55.1625 10.2287 56.0075C7.94945 58.2867 7.94945 61.9954 10.2287 64.2746L13.7256 67.7715C16.0048 70.0506 19.7136 70.0507 21.9928 67.7715C22.838 66.9264 24.1194 66.7081 25.182 67.2287C26.3494 67.8004 27.5661 68.3041 28.7986 68.7255C29.9244 69.1104 30.6808 70.1726 30.6808 71.3708C30.6808 74.5941 33.3033 77.2165 36.5266 77.2165H41.4739C44.6972 77.2165 47.3196 74.5941 47.3196 71.368C47.3196 70.1724 48.0762 69.1104 49.2019 68.7255C50.4343 68.3039 51.6511 67.8004 52.8185 67.2285C53.8809 66.7078 55.1626 66.9263 56.0077 67.7713C58.2869 70.0506 61.9957 70.0504 64.2749 67.7713L67.7718 64.2744C70.051 61.9952 70.051 58.2866 67.7718 56.0074C66.9267 55.1623 66.7086 53.8805 67.2288 52.8182C67.8006 51.6511 68.3042 50.4343 68.7258 49.2015C69.1107 48.0756 70.1727 47.3192 71.3709 47.3192C74.5942 47.3192 77.2167 44.6967 77.2167 41.4735V36.5262C77.2165 33.3031 74.5942 30.6807 71.3682 30.6807ZM74.1696 41.4736C74.1696 43.0168 72.9142 44.2725 71.368 44.2725C68.8697 44.2725 66.649 45.8571 65.8425 48.2159C65.4623 49.3278 65.0078 50.4255 64.4923 51.4782C63.3991 53.7102 63.8511 56.3963 65.6169 58.1621C66.7081 59.2535 66.7081 61.0291 65.6169 62.1203L62.12 65.6172C61.0291 66.7084 59.2532 66.7087 58.162 65.6172C56.3957 63.8512 53.7099 63.3992 51.4779 64.4928C50.4252 65.0084 49.3277 65.4627 48.2159 65.8428C45.8573 66.6493 44.2725 68.8699 44.2725 71.3711C44.2725 72.9143 43.0168 74.1699 41.4736 74.1699H36.5262C34.983 74.1699 33.7274 72.9143 33.7274 71.3683C33.7274 68.8699 32.1427 66.6493 29.784 65.8428C28.6722 65.4627 27.5747 65.0084 26.522 64.4928C24.2703 63.3898 21.5877 63.8675 19.8379 65.6172C18.7468 66.7087 16.9709 66.7086 15.8799 65.6172L12.383 62.1203C11.2917 61.0291 11.2917 59.2535 12.383 58.1621C14.1488 56.3963 14.6008 53.7103 13.5076 51.478C12.9919 50.4255 12.5376 49.328 12.1573 48.2159C11.3508 45.8573 9.13027 44.2725 6.62924 44.2725C5.08585 44.2725 3.83038 43.0168 3.83038 41.4736V36.5264C3.83038 34.9832 5.08585 33.7275 6.63198 33.7275C9.13027 33.7275 11.351 32.1429 12.1575 29.7841C12.5377 28.6722 12.992 27.5745 13.5077 26.522C14.6009 24.29 14.1489 21.6039 12.3831 19.8381C11.2919 18.7468 11.2919 16.9711 12.3831 15.8799L15.88 12.383C16.9709 11.2917 18.7468 11.2914 19.8381 12.383C21.604 14.1488 24.29 14.6006 26.5221 13.5074C27.5748 12.9917 28.6723 12.5374 29.7841 12.1573C32.1427 11.3508 33.7275 9.13027 33.7275 6.62909C33.7275 5.08585 34.9832 3.83023 36.5264 3.83023H41.4738C43.017 3.83023 44.2726 5.08585 44.2726 6.63183C44.2726 9.13027 45.8573 11.3508 48.216 12.1573C49.3278 12.5374 50.4253 12.9917 51.478 13.5074C53.71 14.6008 56.396 14.1488 58.1621 12.383C59.2533 11.2916 61.0292 11.2917 62.1201 12.383L65.6171 15.8799C66.7083 16.9711 66.7083 18.7467 65.6171 19.8381C63.8512 21.6039 63.3992 24.2898 64.4924 26.5221C65.0081 27.5747 65.4624 28.6722 65.8427 29.7843C66.6492 32.1429 68.8697 33.7277 71.3708 33.7277C72.9142 33.7277 74.1696 34.9833 74.1696 36.5266V41.4736Z" fill="#FFFFFC"/>
<path id="Vector_2" d="M39 16.1484C26.3996 16.1484 16.1484 26.3996 16.1484 39C16.1484 51.6004 26.3996 61.8516 39 61.8516C51.6004 61.8516 61.8516 51.6004 61.8516 39C61.8516 26.3996 51.6004 16.1484 39 16.1484ZM39 58.8047C28.0795 58.8047 19.1953 49.9203 19.1953 39C19.1953 28.0797 28.0795 19.1953 39 19.1953C49.9205 19.1953 58.8047 28.0797 58.8047 39C58.8047 49.9203 49.9205 58.8047 39 58.8047Z" fill="#FFFFFC"/>
<path id="Vector_3" d="M48.9024 32.9062H41.4026L44.2233 25.8549C44.6232 24.8546 43.8846 23.7656 42.8086 23.7656H35.1914C34.5685 23.7656 34.0082 24.1448 33.7769 24.7233L27.6832 39.9576C27.2831 40.9579 28.0217 42.0469 29.0977 42.0469H34.7636L32.1899 52.3415C32.0175 53.0307 32.3447 53.7476 32.9782 54.0694C33.6109 54.3904 34.3825 54.2332 34.8383 53.6862L50.0727 35.405C50.8987 34.4135 50.1904 32.9062 48.9024 32.9062Z" fill="#FFFFFC"/>
</g>
</g>
</g>
</g>
</g>
<defs>
<linearGradient id="paint0_linear_0_1" x1="460" y1="-45" x2="460" y2="606" gradientUnits="userSpaceOnUse">
<stop offset="0.421875" stop-color="#002F67" stop-opacity="0.99"/>
<stop offset="1" stop-color="#00465D" stop-opacity="0.77"/>
</linearGradient>
<clipPath id="clip0_0_1">
<rect width="1024" height="1810" fill="white" transform="translate(-52 -45)"/>
</clipPath>
<clipPath id="clip1_0_1">
<rect width="78" height="78" fill="white"/>
</clipPath>
</defs>
</svg>
