<svg width="67" height="67" viewBox="0 0 67 67" fill="none" xmlns="http://www.w3.org/2000/svg">
<g id="powerbank_power_bank_battery 1">
<g id="layer1">
<g id="g3">
<path id="rect6752" fill-rule="evenodd" clip-rule="evenodd" d="M29.7796 5.58324C27.7335 5.58324 26.0574 7.25945 26.0574 9.30546V14.8888H27.9185V9.30546C27.9185 8.25831 28.7326 7.44435 29.7796 7.44435H39.0852C40.1323 7.44435 40.9463 8.25831 40.9463 9.30546V26.9242C40.9456 26.946 40.9456 26.9678 40.9463 26.9897V41.875V59.5555C40.9463 61.6016 42.6224 63.2778 44.6685 63.2778H50.2519C52.298 63.2778 53.9741 61.6016 53.9741 59.5555V29.7778H52.113V59.5555C52.113 60.6027 51.2989 61.4167 50.2519 61.4167H44.6685C43.6215 61.4167 42.8074 60.6027 42.8074 59.5555V41.9404C42.8082 41.9186 42.8082 41.8969 42.8074 41.8749V26.9896V9.30544C42.8074 7.25943 41.1313 5.58322 39.0852 5.58322L29.7796 5.58324ZM48.6561 9.30546C48.5445 9.30546 48.3907 9.41769 48.3907 9.6944V14.8924H57.6963V9.6944C57.6963 9.41769 57.54 9.30546 57.4309 9.30546H55.8352V13.0313H53.9741V9.30546H52.113V13.0277H50.2519V9.30546H48.6561ZM24.1963 16.7499V18.611H29.7796V16.7499H24.1963ZM46.5296 16.8044V24.198H47.9327H49.6338H53.0435H56.4494H56.693H58.1541H59.5537V16.8044H46.5259H46.5296ZM20.4741 20.4721V24.1944H33.5019V20.4721H20.4741ZM8.49318 26.0555C7.89725 26.0555 7.4463 26.5063 7.4463 27.1024V31.6388H37.2241V27.1024C37.2241 26.5063 36.7731 26.0555 36.1772 26.0555H8.49318ZM50.2519 26.0592V27.9203H55.8352V26.0592H53.0472H50.2556H50.2519ZM28.8491 27.9167C29.3629 27.9167 29.7796 28.3333 29.7796 28.8472C29.7796 29.3612 29.3629 29.7778 28.8491 29.7778C28.3352 29.7778 27.9185 29.3612 27.9185 28.8472C27.9185 28.3333 28.3352 27.9167 28.8491 27.9167ZM32.5713 27.9167C33.0852 27.9167 33.5019 28.3333 33.5019 28.8472C33.5019 29.3612 33.0852 29.7778 32.5713 29.7778C32.0574 29.7778 31.6407 29.3612 31.6407 28.8472C31.6407 28.3333 32.0574 27.9167 32.5713 27.9167ZM7.4463 33.5V62.2309C7.4463 62.827 7.89725 63.2778 8.49318 63.2778H36.1772C36.7731 63.2778 37.2241 62.827 37.2241 62.2309V33.5H7.4463ZM18.613 35.3611H26.0574C26.5713 35.3612 26.988 35.7778 26.988 36.2917V39.0834H28.8491C29.3629 39.0834 29.7796 39.5 29.7796 40.0139V60.4861C29.7796 61 29.3629 61.4166 28.8491 61.4167H15.8213C15.3075 61.4166 14.8907 61 14.8907 60.4861V40.0139C14.8907 39.5 15.3075 39.0834 15.8213 39.0834H17.6824V36.2917C17.6824 35.7778 18.0991 35.3612 18.613 35.3611ZM19.5435 37.2222V39.0834H25.1269V37.2222H19.5435ZM16.7519 40.9445V59.5556H27.9185V40.9445H16.7519ZM20.725 42.8056H24.7306C25.3269 42.8052 25.7697 43.3578 25.6394 43.9397L24.7889 47.7637H25.4613C26.1827 47.7626 26.6305 48.5458 26.2646 49.1668L21.5247 57.2364C21.0093 58.0998 19.6807 57.6458 19.8017 56.6476L20.3868 52.1111H19.5217C18.948 52.1118 18.5108 51.598 18.602 51.0315L19.8052 43.5907C19.8778 43.1383 20.2669 42.8053 20.725 42.8056ZM21.5137 44.6667L20.6159 50.25H21.4446C22.0063 50.2498 22.4405 50.7435 22.3679 51.3005L22.2302 52.3619L23.8367 49.6248H23.6261C23.0298 49.6252 22.587 49.0726 22.7173 48.4907L23.5715 44.6667H21.5137Z" fill="#00B5A1"/>
</g>
</g>
</g>
</svg>
