{
	"asset":{
		"generator":"Khronos glTF Blender I/O v3.6.27",
		"version":"2.0"
	},
	"extensionsUsed":[
		"KHR_materials_transmission",
		"KHR_materials_specular"
	],
	"scene":0,
	"scenes":[
		{
			"name":"Scene",
			"nodes":[
				0
			]
		}
	],
	"nodes":[
		{
			"mesh":0,
			"name":"Wind Turbines N190121",
			"rotation":[
				0.7071068286895752,
				0,
				0,
				0.7071068286895752
			],
			"scale":[
				0.1064557135105133,
				0.1064557135105133,
				0.1064557135105133
			],
			"translation":[
				-1.0092934370040894,
				-2.545422315597534,
				-0.600081205368042
			]
		}
	],
	"materials":[
		{
			"doubleSided":true,
			"extensions":{
				"KHR_materials_transmission":{
					"transmissionFactor":1
				},
				"KHR_materials_specular":{
					"specularColorFactor":[
						1,
						1,
						1
					]
				}
			},
			"name":"black_st",
			"pbrMetallicRoughness":{
				"baseColorTexture":{
					"index":0
				},
				"metallicFactor":0,
				"roughnessFactor":0.7354248762130737
			}
		},
		{
			"doubleSided":true,
			"extensions":{
				"KHR_materials_transmission":{
					"transmissionFactor":1
				},
				"KHR_materials_specular":{
					"specularColorFactor":[
						1,
						1,
						1
					]
				}
			},
			"name":"st_tile",
			"pbrMetallicRoughness":{
				"baseColorTexture":{
					"index":1
				},
				"metallicFactor":0,
				"roughnessFactor":0.7354248762130737
			}
		},
		{
			"doubleSided":true,
			"extensions":{
				"KHR_materials_transmission":{
					"transmissionFactor":1
				},
				"KHR_materials_specular":{
					"specularColorFactor":[
						1,
						1,
						1
					]
				}
			},
			"name":"st_red",
			"pbrMetallicRoughness":{
				"baseColorTexture":{
					"index":2
				},
				"metallicFactor":0,
				"roughnessFactor":0.7354248762130737
			}
		},
		{
			"doubleSided":true,
			"extensions":{
				"KHR_materials_transmission":{
					"transmissionFactor":1
				},
				"KHR_materials_specular":{
					"specularColorFactor":[
						1,
						1,
						1
					]
				}
			},
			"name":"st_blue",
			"pbrMetallicRoughness":{
				"baseColorTexture":{
					"index":3
				},
				"metallicFactor":0,
				"roughnessFactor":0.8999999761581421
			}
		}
	],
	"meshes":[
		{
			"name":"Wind Turbines N190121",
			"primitives":[
				{
					"attributes":{
						"POSITION":0,
						"NORMAL":1,
						"TEXCOORD_0":2
					},
					"indices":3,
					"material":0
				},
				{
					"attributes":{
						"POSITION":4,
						"NORMAL":5,
						"TEXCOORD_0":6
					},
					"indices":7,
					"material":1
				},
				{
					"attributes":{
						"POSITION":8,
						"NORMAL":9,
						"TEXCOORD_0":10
					},
					"indices":11,
					"material":2
				},
				{
					"attributes":{
						"POSITION":12,
						"NORMAL":13,
						"TEXCOORD_0":14
					},
					"indices":15,
					"material":3
				}
			]
		}
	],
	"textures":[
		{
			"sampler":0,
			"source":0
		},
		{
			"sampler":0,
			"source":1
		},
		{
			"sampler":0,
			"source":2
		},
		{
			"sampler":0,
			"source":3
		}
	],
	"images":[
		{
			"mimeType":"image/jpeg",
			"name":"metalbla",
			"uri":"metalbla.jpg"
		},
		{
			"mimeType":"image/jpeg",
			"name":"lig_whit",
			"uri":"lig_whit.jpg"
		},
		{
			"mimeType":"image/jpeg",
			"name":"Tile 18R",
			"uri":"Tile%2018R.jpg"
		},
		{
			"mimeType":"image/jpeg",
			"name":"metalBLU",
			"uri":"metalBLU.jpg"
		}
	],
	"accessors":[
		{
			"bufferView":0,
			"componentType":5126,
			"count":6344,
			"max":[
				38.32120132446289,
				49.16669845581055,
				0
			],
			"min":[
				-88.95130157470703,
				-48.77090072631836,
				-901.8422241210938
			],
			"type":"VEC3"
		},
		{
			"bufferView":1,
			"componentType":5126,
			"count":6344,
			"type":"VEC3"
		},
		{
			"bufferView":2,
			"componentType":5126,
			"count":6344,
			"type":"VEC2"
		},
		{
			"bufferView":3,
			"componentType":5123,
			"count":9600,
			"type":"SCALAR"
		},
		{
			"bufferView":4,
			"componentType":5126,
			"count":26990,
			"max":[
				96.23410034179688,
				351.9126892089844,
				-38.7775993347168
			],
			"min":[
				-89.47309875488281,
				-352.9975891113281,
				-1070.403564453125
			],
			"type":"VEC3"
		},
		{
			"bufferView":5,
			"componentType":5126,
			"count":26990,
			"type":"VEC3"
		},
		{
			"bufferView":6,
			"componentType":5126,
			"count":26990,
			"type":"VEC2"
		},
		{
			"bufferView":7,
			"componentType":5123,
			"count":40992,
			"type":"SCALAR"
		},
		{
			"bufferView":8,
			"componentType":5126,
			"count":5634,
			"max":[
				62.21910095214844,
				381.0599060058594,
				-117.76930236816406
			],
			"min":[
				-89.63919830322266,
				-382.77459716796875,
				-1087.6199951171875
			],
			"type":"VEC3"
		},
		{
			"bufferView":9,
			"componentType":5126,
			"count":5634,
			"type":"VEC3"
		},
		{
			"bufferView":10,
			"componentType":5126,
			"count":5634,
			"type":"VEC2"
		},
		{
			"bufferView":11,
			"componentType":5123,
			"count":8478,
			"type":"SCALAR"
		},
		{
			"bufferView":12,
			"componentType":5126,
			"count":90,
			"max":[
				-27.384300231933594,
				2.149399995803833,
				-148.5635986328125
			],
			"min":[
				-27.584299087524414,
				-1.3523000478744507,
				-152.0845947265625
			],
			"type":"VEC3"
		},
		{
			"bufferView":13,
			"componentType":5126,
			"count":90,
			"type":"VEC3"
		},
		{
			"bufferView":14,
			"componentType":5126,
			"count":90,
			"type":"VEC2"
		},
		{
			"bufferView":15,
			"componentType":5123,
			"count":168,
			"type":"SCALAR"
		}
	],
	"bufferViews":[
		{
			"buffer":0,
			"byteLength":76128,
			"byteOffset":0,
			"target":34962
		},
		{
			"buffer":0,
			"byteLength":76128,
			"byteOffset":76128,
			"target":34962
		},
		{
			"buffer":0,
			"byteLength":50752,
			"byteOffset":152256,
			"target":34962
		},
		{
			"buffer":0,
			"byteLength":19200,
			"byteOffset":203008,
			"target":34963
		},
		{
			"buffer":0,
			"byteLength":323880,
			"byteOffset":222208,
			"target":34962
		},
		{
			"buffer":0,
			"byteLength":323880,
			"byteOffset":546088,
			"target":34962
		},
		{
			"buffer":0,
			"byteLength":215920,
			"byteOffset":869968,
			"target":34962
		},
		{
			"buffer":0,
			"byteLength":81984,
			"byteOffset":1085888,
			"target":34963
		},
		{
			"buffer":0,
			"byteLength":67608,
			"byteOffset":1167872,
			"target":34962
		},
		{
			"buffer":0,
			"byteLength":67608,
			"byteOffset":1235480,
			"target":34962
		},
		{
			"buffer":0,
			"byteLength":45072,
			"byteOffset":1303088,
			"target":34962
		},
		{
			"buffer":0,
			"byteLength":16956,
			"byteOffset":1348160,
			"target":34963
		},
		{
			"buffer":0,
			"byteLength":1080,
			"byteOffset":1365116,
			"target":34962
		},
		{
			"buffer":0,
			"byteLength":1080,
			"byteOffset":1366196,
			"target":34962
		},
		{
			"buffer":0,
			"byteLength":720,
			"byteOffset":1367276,
			"target":34962
		},
		{
			"buffer":0,
			"byteLength":336,
			"byteOffset":1367996,
			"target":34963
		}
	],
	"samplers":[
		{
			"magFilter":9729,
			"minFilter":9987
		}
	],
	"buffers":[
		{
			"byteLength":1368332,
			"uri":"torre-eolica2.bin"
		}
	]
}
